<?xml version="1.0" encoding="utf-8"?>
<!-- Generator: Adobe Illustrator 27.1.1, SVG Export Plug-In . SVG Version: 6.00 Build 0)  -->
<svg version="1.1" id="Слой_1" xmlns="http://www.w3.org/2000/svg" xmlns:xlink="http://www.w3.org/1999/xlink" x="0px" y="0px"
	 viewBox="0 0 272 220" style="enable-background:new 0 0 272 220;" xml:space="preserve">
<style type="text/css">
	.st0{clip-path:url(#SVGID_00000053538078850534967250000014871504305150828181_);}
	.st1{fill:#F4FFF5;}
	.st2{fill:#020817;}
	.st3{fill:none;stroke:#1E293B;stroke-width:3.75;}
</style>
<g>
	<defs>
		<path id="SVGID_1_" d="M6.7,78.5C3.3,53.9,20.4,31.1,45,27.6L193.6,6.8c24.6-3.5,47.4,13.7,50.8,38.3l20.9,148.5
			c3.5,24.6-13.7,47.4-38.3,50.8L78.4,265.3c-24.6,3.5-47.4-13.7-50.8-38.3L6.7,78.5z"/>
	</defs>
	<use xlink:href="#SVGID_1_"  style="overflow:visible;fill:#F4FFF5;"/>
	<clipPath id="SVGID_00000016781259688705945310000012156952397620304808_">
		<use xlink:href="#SVGID_1_"  style="overflow:visible;"/>
	</clipPath>
	<g style="clip-path:url(#SVGID_00000016781259688705945310000012156952397620304808_);">
		<path class="st1" d="M6.7,78.5C3.3,53.9,20.4,31.1,45,27.6L193.6,6.8c24.6-3.5,47.4,13.7,50.8,38.3l20.9,148.5
			c3.5,24.6-13.7,47.4-38.3,50.8L78.4,265.3c-24.6,3.5-47.4-13.7-50.8-38.3L6.7,78.5z"/>
		<path class="st2" d="M96.3,161l1.2,8.8l-39-7.9l-1.3-9.6l35.3-18.2l1.2,8.8l-27,13L96.3,161z M119.4,168.4
			c-7.8,1.1-13.2-2.8-14.2-9.7c-0.9-6.8,3.4-11.7,12-13.6l10.9-2.4l-0.1-0.8c-0.7-5-4-6.6-8.6-5.9c-5.3,0.8-8,3.4-7.5,7.3l-7.7,1.1
			c-1.1-7.9,4.7-14.1,14.6-15.5c9.9-1.4,16.7,3.1,18.1,13.3l3.1,22.3l-7.9,1.1l-1.4-5.3C129.7,164.3,125.1,167.6,119.4,168.4z
			 M121.4,161.1c5.6-0.8,8.7-4.6,7.9-10.3l-0.3-1.9l-7.6,1.7c-5.6,1.3-7.5,3.5-7,6.4C114.8,160.4,117.3,161.7,121.4,161.1z
			 M165.7,135.9l-22.7,3.2l-0.7-4.7l10.6-11.6c2.6-2.9,3.7-5.2,3.3-8c-0.5-3.7-2.6-5.5-5.9-5c-3.4,0.5-5.1,3.1-4.5,7.1l-6.1,0.9
			c-0.8-7.4,2.9-12.6,9.8-13.6c7-1,11.9,2.6,12.8,9.3c0.6,4.3-1,8.2-4.7,12.2l-5.9,6.5l13.2-1.9L165.7,135.9z M212.1,140.4
			l-35.3,18.3l-1.2-8.8l27-13l-29.5-5l-1.2-8.8l39,7.8L212.1,140.4z"/>
		<g>
			<path class="st2" d="M-10.1-18c-7.4-2.7-15.7-0.3-23.1,0.8c-0.8-5.8,3.2-10.4,4.9-16C-21.8-54.3-13.1-72.5,7.7-83
				c11.1-5.5,27.9-4.1,35.8,6.4c4.5,6,6.6,13.7,12.3,18.8c7,6.3,16.3,10.8,25.8,11.2c9.7,0.3,20.4-1.1,29.8-3.5
				c6.2-1.6,12.1-4.4,18.4-5.6C144-58.5,154.4-58,161.2-44c9,18.4,0.5,36-17.5,43c-16.2,6.3-31.4,17.5-39.5,33.4
				C99.1,42.5,91.4,50.8,80.4,55c-9.9,3.8-22.4,5.7-32.9,3.4c-4.3-1-7.6-3.6-11.3-5.8C26,46.6,19.6,36.6,16.9,25.1
				c-1.6-7-1.2-14.4-3.9-21.2C9.1-6-0.1-14.4-10.1-18z"/>
		</g>
	</g>
</g>
<path class="st3" d="M8.6,78.2C5.3,54.6,21.7,32.8,45.3,29.5L193.8,8.6c23.6-3.3,45.4,13.1,48.7,36.7l20.9,148.5
	c3.3,23.6-13.1,45.4-36.7,48.7L78.2,263.5c-23.6,3.3-45.4-13.1-48.7-36.7L8.6,78.2z"/>
</svg>
