<?xml version="1.0" encoding="utf-8"?>
<!-- Generator: Adobe Illustrator 27.1.1, SVG Export Plug-In . SVG Version: 6.00 Build 0)  -->
<svg version="1.1" id="Слой_1" xmlns="http://www.w3.org/2000/svg" xmlns:xlink="http://www.w3.org/1999/xlink" x="0px" y="0px"
	 viewBox="0 0 154 40" style="enable-background:new 0 0 154 40;" xml:space="preserve">
<style type="text/css">
	.st0{clip-path:url(#SVGID_00000038397319211761536510000007761492267355814583_);}
	.st1{fill:#020817;}
	.st2{fill:#FFFFFF;}
	.st3{fill:#4E7AFF;}
	.st4{fill:url(#SVGID_00000094579083839731106520000015543366526151976071_);}
	.st5{fill:none;stroke:#1E293B;}
</style>
<g>
	<defs>
		<path id="SVGID_1_" d="M0,8c0-4.4,3.6-8,8-8h24c4.4,0,8,3.6,8,8v24c0,4.4-3.6,8-8,8H8c-4.4,0-8-3.6-8-8V8z"/>
	</defs>
	<clipPath id="SVGID_00000181077020156816516700000004106662585167086488_">
		<use xlink:href="#SVGID_1_"  style="overflow:visible;"/>
	</clipPath>
	<g style="clip-path:url(#SVGID_00000181077020156816516700000004106662585167086488_);">
		<path class="st1" d="M0,8c0-4.4,3.6-8,8-8h24c4.4,0,8,3.6,8,8v24c0,4.4-3.6,8-8,8H8c-4.4,0-8-3.6-8-8V8z"/>
		<g>
			<path class="st2" d="M13.9,17.2H17c0.1,0,0.1,0,0.2-0.1c0.5-0.5,3.5-3.6,4.4-4.4c0.1-0.1,0-0.2-0.1-0.2h-7.8
				c-5.1,0-9.2,4.1-9.2,9.2v0.1c0,5.1,4.1,9.2,9.2,9.2h3.2c0.1,0,0.3-0.1,0.3-0.3v-4.1c0-0.1-0.1-0.3-0.3-0.3h-2.9
				c-2.5,0-4.5-2-4.5-4.5v-0.1C9.4,19.2,11.5,17.2,13.9,17.2z"/>
			<path class="st3" d="M26.3,12.4l-3,0c-0.1,0-0.2,0-0.2,0.1c-0.6,0.6-3.9,3.9-4.4,4.5c-0.1,0.1-0.1,0.1-0.1,0.2v13.3
				c0,0.2,0.1,0.3,0.3,0.3h4.4c0.2,0,0.3-0.1,0.3-0.3V17.4c0-0.1,0.1-0.3,0.3-0.3h2.5c2.5,0,4.5,2,4.5,4.5v0c0,2.5-2,4.5-4.5,4.5
				h-1.1c-0.2,0-0.3,0.1-0.3,0.3v4c0,0.2,0.1,0.3,0.3,0.3h1.1c5.1,0,9.2-4.1,9.2-9.2v0C35.5,16.6,31.4,12.4,26.3,12.4z"/>
		</g>
	</g>
	<g style="clip-path:url(#SVGID_00000181077020156816516700000004106662585167086488_);">
		
			<linearGradient id="SVGID_00000174598752057030961360000006410408331760139946_" gradientUnits="userSpaceOnUse" x1="18.5633" y1="71.0851" x2="18.5633" y2="31.0851" gradientTransform="matrix(1 0 0 -1 0 42)">
			<stop  offset="0" style="stop-color:#3259E8"/>
			<stop  offset="0.7149" style="stop-color:#0D1D57"/>
		</linearGradient>
		<path style="fill:url(#SVGID_00000174598752057030961360000006410408331760139946_);" d="M-1.7-12.2c-1.8-1-4.1-0.7-6.1-0.7
			c0-1.6,1.2-2.6,1.9-4c2.5-5.3,5.5-9.8,11.4-11.8c3.1-1.1,7.5-0.1,9.2,3c1,1.7,1.2,3.9,2.5,5.4c1.6,1.9,3.9,3.5,6.4,3.9
			c2.5,0.5,5.4,0.5,8,0.2c1.7-0.2,3.4-0.7,5.1-0.8c3.9-0.2,6.6,0.3,7.9,4.2c1.7,5.2-1.2,9.5-6.2,10.7c-4.5,1.1-8.9,3.5-11.7,7.4
			c-1.7,2.5-4.1,4.4-7.1,5.1c-2.8,0.6-6.1,0.7-8.8-0.3C9.6,9.7,8.8,8.9,7.9,8.2c-2.5-2-3.8-4.9-4.1-8C3.7-1.7,4-3.7,3.6-5.5
			C2.9-8.3,0.8-10.9-1.7-12.2z"/>
	</g>
</g>
<path class="st5" d="M0.5,8c0-4.1,3.4-7.5,7.5-7.5h24c4.1,0,7.5,3.4,7.5,7.5v24c0,4.1-3.4,7.5-7.5,7.5H8c-4.1,0-7.5-3.4-7.5-7.5V8z"
	/>
<g>
	<g>
		<path class="st2" d="M60.1,18.5c-0.5,0.9-1.2,1.7-2.1,2.3c-1,0.6-2.1,0.9-3.3,0.9c-2,0-3.7-0.6-4.9-1.7c-1.2-1.1-1.8-2.7-1.8-4.8
			c0-2.1,0.6-3.9,1.8-5.1s2.8-1.9,4.7-1.9c1.4,0,2.5,0.3,3.5,0.9c0.9,0.6,1.6,1.5,2.1,2.6l-2.6,1c-0.3-0.7-0.7-1.1-1.1-1.4
			c-0.5-0.3-1-0.4-1.7-0.4c-1,0-1.8,0.4-2.5,1.2c-0.7,0.8-1,1.8-1,3.1c0,1.3,0.3,2.3,1,3c0.7,0.7,1.6,1.1,2.7,1.1
			c0.6,0,1.2-0.1,1.7-0.4c0.5-0.3,0.8-0.7,1.1-1.3L60.1,18.5z"/>
		<path class="st2" d="M66.4,21.7c-1.5,0-2.7-0.4-3.7-1.3s-1.4-2.1-1.4-3.6c0-1.5,0.5-2.7,1.4-3.6s2.2-1.4,3.8-1.4
			c1.6,0,2.8,0.5,3.7,1.4s1.3,2,1.3,3.4c0,1.5-0.5,2.7-1.4,3.6C69.1,21.2,67.9,21.7,66.4,21.7z M66.5,19.4c0.7,0,1.2-0.3,1.6-0.8
			c0.4-0.5,0.5-1.2,0.5-2s-0.2-1.4-0.5-1.9c-0.4-0.5-0.9-0.7-1.6-0.7c-0.7,0-1.2,0.2-1.6,0.7s-0.6,1.1-0.6,1.9
			c0,0.8,0.2,1.4,0.6,1.9C65.2,19.2,65.7,19.4,66.5,19.4z"/>
		<path class="st2" d="M79.6,20.2c-0.3,0.5-0.8,0.8-1.2,1.1c-0.5,0.2-1.1,0.4-1.7,0.4c-1.2,0-2.2-0.4-2.9-1.2
			c-0.7-0.8-1.1-2-1.1-3.5c0-1.6,0.4-2.8,1.2-3.7s1.9-1.4,3.3-1.4c0.5,0,1,0.1,1.5,0.4c0.5,0.2,0.8,0.5,1,0.8h0V7.6h2.9v13.9h-2.9
			L79.6,20.2L79.6,20.2z M75.6,16.9c0,0.8,0.2,1.4,0.5,1.9c0.4,0.4,0.9,0.7,1.5,0.7c0.6,0,1.1-0.2,1.5-0.7c0.4-0.5,0.6-1.1,0.6-1.8
			v-0.7c0-0.6-0.2-1.1-0.5-1.5s-0.8-0.6-1.4-0.6c-0.7,0-1.2,0.2-1.6,0.7C75.8,15.3,75.6,16,75.6,16.9z"/>
		<path class="st2" d="M86.2,10.8c-0.5,0-0.9-0.2-1.2-0.5c-0.3-0.3-0.5-0.7-0.5-1.1c0-0.5,0.2-0.9,0.5-1.2c0.3-0.3,0.7-0.4,1.2-0.4
			c0.5,0,0.9,0.1,1.2,0.4c0.3,0.3,0.5,0.7,0.5,1.2c0,0.5-0.2,0.9-0.5,1.2C87.1,10.7,86.7,10.8,86.2,10.8z M87.7,21.5h-2.9v-9.4h2.9
			V21.5z"/>
		<path class="st2" d="M99.3,20.7c0,1.6-0.5,2.9-1.4,3.8s-2.3,1.4-4,1.4c-1.1,0-1.9-0.2-2.7-0.5c-0.7-0.4-1.3-0.8-1.8-1.5l2-1.5
			c0.3,0.4,0.6,0.8,1,1c0.4,0.2,0.9,0.4,1.5,0.4c0.8,0,1.4-0.2,1.8-0.7c0.4-0.4,0.7-1.1,0.7-1.9v-0.7h0c-0.3,0.4-0.8,0.7-1.2,1
			c-0.5,0.2-1.1,0.3-1.7,0.3c-1.1,0-2.1-0.4-2.8-1.2c-0.8-0.8-1.1-2-1.1-3.4c0-1.7,0.4-2.9,1.3-3.8c0.9-0.9,1.9-1.4,3.2-1.4
			c0.5,0,0.9,0.1,1.4,0.3s0.8,0.5,1.1,0.8h0v-0.9h2.9V20.7z M96.4,16.9v-0.7c0-0.6-0.2-1.1-0.6-1.5c-0.4-0.4-0.9-0.6-1.4-0.6
			c-0.7,0-1.2,0.2-1.5,0.7s-0.6,1.2-0.6,2c0,0.8,0.2,1.4,0.5,1.9c0.3,0.4,0.9,0.7,1.5,0.7c0.6,0,1.1-0.2,1.5-0.7
			C96.2,18.3,96.4,17.7,96.4,16.9z"/>
		<path class="st2" d="M116.4,21.5h-2.9V16c0-0.6-0.1-1.1-0.4-1.4c-0.3-0.3-0.6-0.5-1.1-0.5c-0.5,0-0.9,0.2-1.2,0.6
			c-0.3,0.4-0.4,0.9-0.4,1.5v5.2h-2.9V16c0-0.6-0.1-1.1-0.4-1.5s-0.6-0.5-1.1-0.5c-0.5,0-0.9,0.2-1.2,0.6c-0.3,0.4-0.4,0.9-0.4,1.6
			v5.2h-2.9v-9.4h2.9v1.2h0c0.3-0.4,0.7-0.7,1.3-1c0.5-0.3,1.1-0.4,1.7-0.4c0.7,0,1.2,0.1,1.7,0.4c0.5,0.3,0.8,0.6,1,1.1
			c0.4-0.5,0.9-0.9,1.4-1.1c0.5-0.2,1.1-0.4,1.8-0.4c0.9,0,1.6,0.3,2.2,1s0.8,1.6,0.8,2.8V21.5z"/>
		<path class="st2" d="M126.3,21.5h-2.7v-1.1h0c-0.3,0.4-0.8,0.7-1.2,1s-1,0.3-1.6,0.3c-0.8,0-1.5-0.2-2.1-0.7
			c-0.6-0.5-0.9-1.2-0.9-2c0-0.8,0.3-1.5,0.8-2.1c0.6-0.6,1.4-0.9,2.5-1l2.5-0.3v-0.3c0-0.5-0.1-0.8-0.4-1c-0.3-0.2-0.7-0.3-1.1-0.3
			s-0.8,0.1-1.1,0.3c-0.3,0.2-0.6,0.5-0.9,0.9l-1.9-1.2c0.3-0.5,0.9-1,1.6-1.4c0.7-0.4,1.6-0.6,2.6-0.6c1.3,0,2.3,0.3,3,1
			c0.7,0.7,1,1.7,1,3V21.5z M123.6,17.6v-0.4l-1.9,0.2c-0.4,0-0.8,0.2-0.9,0.4s-0.3,0.5-0.3,0.8c0,0.3,0.1,0.5,0.3,0.7
			s0.5,0.3,0.8,0.3c0.6,0,1-0.2,1.4-0.6S123.6,18.2,123.6,17.6z"/>
	</g>
</g>
<g>
	<g>
		<path class="st3" d="M51.9,33.6c-1.2,0-2.2-0.4-2.9-1.2s-1.1-1.8-1.1-3.1c0-1.3,0.4-2.4,1.1-3.2s1.8-1.2,3-1.2
			c1.2,0,2.1,0.4,2.9,1.2s1.1,1.8,1.1,3.1c0,1.3-0.4,2.4-1.1,3.2S53.1,33.6,51.9,33.6z M51.9,32.4c0.8,0,1.4-0.3,1.9-0.8
			s0.7-1.3,0.7-2.3c0-1-0.2-1.8-0.7-2.3s-1.1-0.8-1.8-0.8s-1.4,0.3-1.9,0.9s-0.7,1.3-0.7,2.2c0,0.9,0.2,1.7,0.7,2.2
			S51.1,32.4,51.9,32.4z"/>
		<path class="st3" d="M59.9,33.5h-1.4v-5h-1.8v-1.1h5v1.1h-1.8V33.5z"/>
		<path class="st3" d="M68,33.5h-1.4v-5.1h-2v1.7c0,0.9,0,1.5-0.1,2s-0.3,0.8-0.5,1.1c-0.2,0.2-0.3,0.3-0.5,0.4s-0.4,0.1-0.7,0.1
			c-0.1,0-0.2,0-0.3,0s-0.2,0-0.3-0.1l0.2-1.1c0.1,0,0.1,0,0.2,0s0.1,0,0.1,0c0.1,0,0.2,0,0.3,0s0.1-0.1,0.2-0.1
			c0.1-0.1,0.2-0.4,0.3-0.7s0.1-0.9,0.1-1.6v-2.6H68V33.5z"/>
		<path class="st3" d="M74.5,33.5h-1.3v-0.9h0c-0.2,0.4-0.5,0.6-0.8,0.8s-0.7,0.3-1.1,0.3c-0.6,0-1-0.2-1.4-0.5s-0.5-0.8-0.5-1.3
			c0-0.6,0.2-1,0.5-1.4s0.9-0.6,1.6-0.7l1.6-0.2v-0.1c0-0.4-0.1-0.7-0.3-0.9s-0.5-0.3-0.9-0.3c-0.3,0-0.6,0.1-0.9,0.2
			s-0.6,0.3-0.9,0.5l-0.6-0.8c0.4-0.3,0.8-0.5,1.2-0.6s0.8-0.2,1.3-0.2c0.8,0,1.4,0.2,1.8,0.6s0.6,1,0.6,1.8V33.5z M73.2,31v-0.5
			l-1.3,0.2c-0.4,0.1-0.7,0.2-0.9,0.3s-0.3,0.4-0.3,0.7c0,0.3,0.1,0.5,0.3,0.7s0.4,0.3,0.7,0.3c0.4,0,0.8-0.2,1.1-0.5
			S73.2,31.5,73.2,31z"/>
		<path class="st3" d="M75.6,35.1v-2.7h0.6c0.2-0.5,0.4-1,0.5-1.6s0.2-1.3,0.2-2v-1.4h4.4v5.1h0.9v2.7H81v-1.6h-4.3v1.6H75.6z
			 M79.9,32.5v-4.1h-1.8v0.5c0,0.7-0.1,1.4-0.2,2c-0.1,0.6-0.3,1.1-0.5,1.6H79.9z"/>
		<path class="st3" d="M83.6,33.5v-6.1h1.4v2h1.6c0.7,0,1.3,0.2,1.6,0.5s0.6,0.8,0.6,1.5c0,0.7-0.2,1.2-0.6,1.6s-0.9,0.5-1.6,0.5
			H83.6z M84.9,32.5h1.2c0.4,0,0.6-0.1,0.8-0.3s0.3-0.4,0.3-0.8c0-0.3-0.1-0.6-0.3-0.8s-0.5-0.3-0.8-0.3h-1.2V32.5z"/>
		<path class="st3" d="M93.4,33.5v-6.1h1.8l1.5,3.8c0.1,0.2,0.1,0.3,0.2,0.5s0.1,0.3,0.1,0.5h0c0.1-0.2,0.1-0.3,0.1-0.5
			s0.1-0.3,0.2-0.5l1.5-3.8h1.8v6.1h-1.3v-4.9h0c-0.1,0.2-0.1,0.4-0.2,0.6s-0.1,0.4-0.2,0.5l-1.5,3.8h-1.1L95,29.7
			c0-0.1-0.1-0.3-0.2-0.5s-0.1-0.4-0.2-0.6h0v4.9H93.4z"/>
		<path class="st3" d="M102.5,33.5v-6.1h1.3v4.4c0.1-0.1,0.1-0.2,0.2-0.3s0.1-0.2,0.2-0.3l2.6-3.8h1.3v6.1h-1.3v-4.4
			c-0.1,0.1-0.1,0.2-0.2,0.3s-0.1,0.2-0.2,0.3l-2.6,3.8H102.5z"/>
		<path class="st3" d="M111.4,32.7L111.4,32.7l0,3.6H110v-8.9h1.4v1h0c0.2-0.4,0.5-0.7,0.9-0.9s0.7-0.3,1.2-0.3
			c0.8,0,1.4,0.3,1.9,0.8s0.7,1.3,0.7,2.2c0,1-0.3,1.9-0.8,2.5s-1.2,0.9-2,0.9c-0.4,0-0.7-0.1-1-0.2S111.6,33,111.4,32.7z
			 M111.4,30.2v0.7c0,0.5,0.1,0.9,0.4,1.2s0.6,0.5,1.1,0.5c0.5,0,0.9-0.2,1.2-0.6s0.4-1,0.4-1.7c0-0.6-0.1-1.1-0.4-1.4
			s-0.6-0.5-1.1-0.5c-0.5,0-0.9,0.2-1.2,0.5S111.4,29.7,111.4,30.2z"/>
	</g>
</g>
</svg>
